<?xml version="1.0" encoding="UTF-8" standalone="no" ?>
<!DOCTYPE svg PUBLIC "-//W3C//DTD SVG 1.1//EN" "http://www.w3.org/Graphics/SVG/1.1/DTD/svg11.dtd">
<svg xmlns="http://www.w3.org/2000/svg" xmlns:xlink="http://www.w3.org/1999/xlink" version="1.1" width="20" height="20" viewBox="0 0 500 500" xml:space="preserve">
<desc>Created with Fabric.js 4.6.0</desc>
<defs>
</defs>
<g transform="matrix(0.82 0 0 0.82 250 250)" id="4jo8lH2ctDylYsGJYu1ac"  >
<path style="stroke: none; stroke-width: 1; stroke-dasharray: none; stroke-linecap: butt; stroke-dashoffset: 0; stroke-linejoin: miter; stroke-miterlimit: 4; fill: rgb(70,131,222); fill-rule: nonzero; opacity: 1;" vector-effect="non-scaling-stroke"  transform=" translate(-300, -300)" d="M 299.993 0.007 C 134.315 0.007 0 134.315 0 300 C 0 465.678 134.315 599.992 299.993 599.992 C 465.685 599.992 600 465.678 600 300 C 600 134.315 465.685 0.007 299.993 0.007 z M 505.599 305.063 C 505.472 306.313 505.262 307.534 505.045 308.748 C 504.978 309.152 504.94100000000003 309.57099999999997 504.865 309.976 C 504.57300000000004 311.414 504.206 312.822 503.794 314.214 C 503.74199999999996 314.394 503.712 314.573 503.652 314.754 C 503.22499999999997 316.177 502.715 317.55400000000003 502.162 318.91700000000003 C 502.101 319.08200000000005 502.04999999999995 319.247 501.98199999999997 319.41100000000006 C 501.45799999999997 320.6840000000001 500.85799999999995 321.91200000000003 500.229 323.12600000000003 C 500.102 323.38000000000005 499.99 323.64900000000006 499.85499999999996 323.90400000000005 C 499.27799999999996 324.982 498.626 326.0160000000001 497.97499999999997 327.05000000000007 C 497.74299999999994 327.4240000000001 497.53999999999996 327.7990000000001 497.29299999999995 328.17300000000006 C 496.68699999999995 329.0710000000001 496.013 329.92500000000007 495.3539999999999 330.79400000000004 C 495.0089999999999 331.24300000000005 494.69499999999994 331.723 494.3349999999999 332.15700000000004 C 493.5859999999999 333.07000000000005 492.7709999999999 333.92400000000004 491.9609999999999 334.778 C 491.6399999999999 335.107 491.3549999999999 335.481 491.0249999999999 335.81100000000004 L 338.4749999999999 488.35300000000007 C 328.5899999999999 498.22300000000007 315.63499999999993 503.16600000000005 302.6789999999999 503.16600000000005 C 289.72399999999993 503.18100000000004 276.7689999999999 498.23800000000006 266.8759999999999 488.33900000000006 C 247.1059999999999 468.5690000000001 247.11399999999992 436.51800000000003 266.8839999999999 416.74800000000005 L 333.0079999999999 350.624 L 144.762 350.624 C 116.8 350.624 94.13900000000001 327.963 94.13900000000001 300.00800000000004 C 94.13900000000001 272.04600000000005 116.799 249.38500000000005 144.762 249.38500000000005 L 333.01 249.38500000000005 L 266.88599999999997 183.25300000000004 C 247.10899999999998 163.48300000000003 247.10899999999998 131.43200000000004 266.88599999999997 111.66200000000005 C 286.65599999999995 91.89200000000005 318.707 91.89200000000005 338.477 111.66200000000005 L 490.99 264.17500000000007 C 492.173 265.3500000000001 493.289 266.5930000000001 494.35200000000003 267.88200000000006 C 494.60600000000005 268.1890000000001 494.824 268.52600000000007 495.06300000000005 268.8330000000001 C 495.83400000000006 269.8210000000001 496.60600000000005 270.81000000000006 497.302 271.85800000000006 C 497.53400000000005 272.20200000000006 497.721 272.56200000000007 497.946 272.91400000000004 C 498.605 273.95500000000004 499.264 275.00300000000004 499.848 276.09700000000004 C 500.02000000000004 276.41200000000003 500.156 276.74100000000004 500.313 277.05600000000004 C 500.904 278.20900000000006 501.481 279.37700000000007 501.97499999999997 280.576 C 502.087 280.853 502.169 281.13 502.282 281.40700000000004 C 502.776 282.65700000000004 503.24899999999997 283.92300000000006 503.645 285.21900000000005 C 503.765 285.59400000000005 503.83299999999997 285.98300000000006 503.93699999999995 286.35800000000006 C 504.27399999999994 287.5640000000001 504.61099999999993 288.76900000000006 504.85799999999995 290.01200000000006 C 504.99299999999994 290.68600000000004 505.05999999999995 291.37500000000006 505.17199999999997 292.05600000000004 C 505.32199999999995 293.01400000000007 505.50199999999995 293.96600000000007 505.599 294.939 C 505.764 296.617 505.854 298.309 505.854 300.009 C 505.854 301.7 505.764 303.385 505.599 305.063 z" stroke-linecap="round" />
</g>
</svg>